<svg width="18" height="20" viewBox="0 0 18 20" fill="none" xmlns="http://www.w3.org/2000/svg">
<path d="M17.7043 14.71L15.2851 12.29C15.1921 12.1963 15.0816 12.1219 14.9598 12.0711C14.8379 12.0203 14.7073 11.9942 14.5753 11.9942C14.4433 11.9942 14.3127 12.0203 14.1909 12.0711C14.069 12.1219 13.9585 12.1963 13.8655 12.29L10.2867 15.87C10.194 15.9634 10.1207 16.0742 10.071 16.1961C10.0212 16.3179 9.99602 16.4484 9.99678 16.58V19C9.99678 19.2652 10.1021 19.5196 10.2896 19.7071C10.4771 19.8946 10.7313 20 10.9965 20H13.4157C13.5472 20.0007 13.6777 19.9755 13.7995 19.9258C13.9213 19.876 14.032 19.8027 14.1254 19.71L17.7043 16.13C17.798 16.037 17.8724 15.9264 17.9231 15.8046C17.9739 15.6827 18 15.552 18 15.42C18 15.288 17.9739 15.1573 17.9231 15.0354C17.8724 14.9136 17.798 14.8029 17.7043 14.71ZM12.9958 18H11.9961V17L14.5753 14.42L15.575 15.42L12.9958 18ZM6.99775 18H2.99903C2.7339 18 2.47963 17.8946 2.29216 17.7071C2.10468 17.5196 1.99936 17.2652 1.99936 17V3C1.99936 2.73478 2.10468 2.48043 2.29216 2.29289C2.47963 2.10536 2.7339 2 2.99903 2H7.99742V5C7.99742 5.79564 8.31339 6.55871 8.87582 7.12132C9.43825 7.68392 10.2011 7.99999 10.9965 7.99999H13.9955V8.99999C13.9955 9.26521 14.1008 9.51956 14.2883 9.7071C14.4758 9.89463 14.73 9.99999 14.9952 9.99999C15.2603 9.99999 15.5146 9.89463 15.702 9.7071C15.8895 9.51956 15.9948 9.26521 15.9948 8.99999V6.99999C15.9948 6.99999 15.9948 6.99999 15.9948 6.93999C15.9844 6.84813 15.9643 6.75763 15.9349 6.66999V6.57999C15.8868 6.47717 15.8227 6.38266 15.7449 6.29999L9.74686 0.3C9.66422 0.222216 9.56974 0.158081 9.46695 0.11C9.43711 0.10576 9.40682 0.10576 9.37698 0.11L9.05708 0H2.99903C2.20364 0 1.44082 0.31607 0.878397 0.878679C0.315969 1.44129 0 2.20435 0 3V17C0 17.7956 0.315969 18.5587 0.878397 19.1213C1.44082 19.6839 2.20364 20 2.99903 20H6.99775C7.26288 20 7.51715 19.8946 7.70462 19.7071C7.8921 19.5196 7.99742 19.2652 7.99742 19C7.99742 18.7348 7.8921 18.4804 7.70462 18.2929C7.51715 18.1053 7.26288 18 6.99775 18ZM9.99678 3.41L12.5859 6H10.9965C10.7313 6 10.4771 5.89464 10.2896 5.7071C10.1021 5.51957 9.99678 5.26521 9.99678 5V3.41ZM4.99839 12H10.9965C11.2616 12 11.5159 11.8946 11.7033 11.7071C11.8908 11.5196 11.9961 11.2652 11.9961 11C11.9961 10.7348 11.8908 10.4804 11.7033 10.2929C11.5159 10.1053 11.2616 9.99999 10.9965 9.99999H4.99839C4.73326 9.99999 4.47899 10.1053 4.29151 10.2929C4.10403 10.4804 3.99871 10.7348 3.99871 11C3.99871 11.2652 4.10403 11.5196 4.29151 11.7071C4.47899 11.8946 4.73326 12 4.99839 12ZM4.99839 7.99999H5.99807C6.2632 7.99999 6.51747 7.89464 6.70495 7.7071C6.89242 7.51956 6.99775 7.26521 6.99775 6.99999C6.99775 6.73478 6.89242 6.48042 6.70495 6.29289C6.51747 6.10535 6.2632 5.99999 5.99807 6H4.99839C4.73326 5.99999 4.47899 6.10535 4.29151 6.29289C4.10403 6.48042 3.99871 6.73478 3.99871 6.99999C3.99871 7.26521 4.10403 7.51956 4.29151 7.7071C4.47899 7.89464 4.73326 7.99999 4.99839 7.99999ZM6.99775 14H4.99839C4.73326 14 4.47899 14.1053 4.29151 14.2929C4.10403 14.4804 3.99871 14.7348 3.99871 15C3.99871 15.2652 4.10403 15.5196 4.29151 15.7071C4.47899 15.8946 4.73326 16 4.99839 16H6.99775C7.26288 16 7.51715 15.8946 7.70462 15.7071C7.8921 15.5196 7.99742 15.2652 7.99742 15C7.99742 14.7348 7.8921 14.4804 7.70462 14.2929C7.51715 14.1053 7.26288 14 6.99775 14Z" fill="white"/>
</svg>
